<svg id="Слой_1" data-name="Слой 1" xmlns="http://www.w3.org/2000/svg" viewBox="0 0 145 145">
  <defs>
    <style>
      .cls-1 {
        fill: none;
        stroke: #275ba7;
        stroke-miterlimit: 10;
        stroke-width: 2px;
        stroke-dasharray: 6.29 6.29;
      }

      .cls-2 {
        fill: #275ba7;
      }
    </style>
  </defs>
  <circle class="cls-1" cx="17.03" cy="17.03" r="16.03"/>
  <circle class="cls-2" cx="94.58" cy="89.78" r="16.03"/>
  <g>
    <path class="cls-2" d="M40.32,102.64,37.2,100.2a12.39,12.39,0,0,0,.07-1.29,12.19,12.19,0,0,0-.07-1.28l3.13-2.45a1.53,1.53,0,0,0,.37-2L37.44,87.6a1.53,1.53,0,0,0-1.88-.68L31.87,88.4a12.3,12.3,0,0,0-2.21-1.28l-.57-3.92a1.5,1.5,0,0,0-1.5-1.3H21.07a1.5,1.5,0,0,0-1.5,1.29L19,87.12a13.24,13.24,0,0,0-2.21,1.28l-3.7-1.48a1.51,1.51,0,0,0-1.87.66L8,93.22a1.52,1.52,0,0,0,.36,2l3.13,2.45a12.14,12.14,0,0,0-.07,1.28,12.32,12.32,0,0,0,.07,1.29l-3.13,2.45A1.53,1.53,0,0,0,8,104.6l3.25,5.63a1.55,1.55,0,0,0,1.89.67l3.69-1.48A13,13,0,0,0,19,110.71l.56,3.91a1.51,1.51,0,0,0,1.51,1.31h6.52a1.5,1.5,0,0,0,1.5-1.29l.56-3.93a13,13,0,0,0,2.22-1.29l3.7,1.49a1.52,1.52,0,0,0,1.87-.67l3.27-5.65A1.54,1.54,0,0,0,40.32,102.64Zm-.85,1.25-3.38,5.7L32,108a.71.71,0,0,0-.69.09,11.87,11.87,0,0,1-2.6,1.51.68.68,0,0,0-.43.55l-.72,4.4L21,114.43l-.62-4.32a.68.68,0,0,0-.43-.55,11,11,0,0,1-2.59-1.51.77.77,0,0,0-.44-.14.58.58,0,0,0-.26,0l-4.18,1.57L9.2,103.9a.11.11,0,0,1,0-.14l3.44-2.69a.71.71,0,0,0,.27-.65,11,11,0,0,1-.11-1.51,11.26,11.26,0,0,1,.11-1.51.69.69,0,0,0-.27-.64L9.19,93.93l3.38-5.69,4.06,1.63a.71.71,0,0,0,.69-.09,11.49,11.49,0,0,1,2.6-1.51.71.71,0,0,0,.43-.56l.72-4.4,6.62.08.62,4.32a.71.71,0,0,0,.43.56,11.1,11.1,0,0,1,2.59,1.5.71.71,0,0,0,.7.1l4.18-1.58,3.25,5.63a.13.13,0,0,1,0,.15L36,96.76a.69.69,0,0,0-.27.64,10.42,10.42,0,0,1,0,3,.71.71,0,0,0,.27.65l3.44,2.69A.12.12,0,0,1,39.47,103.89Z" transform="translate(-7.29 -9.13)"/>
    <path class="cls-2" d="M24.33,91.82a7.09,7.09,0,1,0,7.09,7.09A7.1,7.1,0,0,0,24.33,91.82Zm0,12.76A5.67,5.67,0,1,1,30,98.91,5.67,5.67,0,0,1,24.33,104.58Z" transform="translate(-7.29 -9.13)"/>
  </g>
  <g>
    <path class="cls-2" d="M89.89,27.66a13.37,13.37,0,0,1-.09-1.5A12.38,12.38,0,0,1,110.58,17l-1.1,1.12a1,1,0,0,0-.25.95,1,1,0,0,0,.72.64c.2,0,6.49,2.07,6.09,2a1,1,0,0,0,1.12-1.12c0-.19-1.43-7.19-1.35-6.78a.94.94,0,0,0-1.6-.48l-.93.91A16.25,16.25,0,0,0,86,26.16v0c0,.54,0,.95.05,1.27a1,1,0,0,0,.77.85l2,.39A1,1,0,0,0,89.89,27.66Z" transform="translate(-7.29 -9.13)"/>
    <path class="cls-2" d="M117.67,24l-2-.4a1,1,0,0,0-1.14,1.05A12.37,12.37,0,0,1,93.89,35.3L95,34.2a1,1,0,0,0,.25-1,1,1,0,0,0-.73-.65c-.19,0-6.48-2.06-6.08-2a1,1,0,0,0-1.12,1.12c0,.19,1.43,7.12,1.35,6.72a.95.95,0,0,0,1.6.48l.91-.92a16.22,16.22,0,0,0,27.31-11.86v-.05c0-.43,0-.84-.06-1.25A.94.94,0,0,0,117.67,24Z" transform="translate(-7.29 -9.13)"/>
  </g>
</svg>
